<mxfile host="app.diagrams.net" modified="2023-06-07T19:22:05.860Z" agent="Mozilla/5.0 (Macintosh; Intel Mac OS X 10.15; rv:109.0) Gecko/20100101 Firefox/113.0" etag="PqRsXlf8EcV94JZ0mPRW" version="21.3.7" type="github">
  <diagram name="Page-1" id="xRLUyUIMnr9OEgLrwgXi">
    <mxGraphModel dx="954" dy="642" grid="1" gridSize="10" guides="1" tooltips="1" connect="1" arrows="1" fold="1" page="1" pageScale="1" pageWidth="1100" pageHeight="850" math="0" shadow="0">
      <root>
        <mxCell id="0" />
        <mxCell id="1" parent="0" />
        <mxCell id="y1rRgEqODbrE1-zOls_D-21" value="" style="rhombus;whiteSpace=wrap;html=1;" vertex="1" parent="1">
          <mxGeometry x="325" y="285" width="90" height="90" as="geometry" />
        </mxCell>
        <mxCell id="y1rRgEqODbrE1-zOls_D-16" value="" style="rhombus;whiteSpace=wrap;html=1;" vertex="1" parent="1">
          <mxGeometry x="145" y="395" width="90" height="90" as="geometry" />
        </mxCell>
        <mxCell id="y1rRgEqODbrE1-zOls_D-40" style="edgeStyle=orthogonalEdgeStyle;rounded=0;orthogonalLoop=1;jettySize=auto;html=1;exitX=1;exitY=0;exitDx=0;exitDy=0;entryX=0;entryY=0.5;entryDx=0;entryDy=0;endArrow=none;endFill=0;" edge="1" parent="1" source="y1rRgEqODbrE1-zOls_D-1" target="y1rRgEqODbrE1-zOls_D-39">
          <mxGeometry relative="1" as="geometry">
            <Array as="points">
              <mxPoint x="275" y="570" />
              <mxPoint x="275" y="580" />
            </Array>
          </mxGeometry>
        </mxCell>
        <mxCell id="y1rRgEqODbrE1-zOls_D-1" value="&lt;div&gt;Department&lt;/div&gt;" style="rounded=0;whiteSpace=wrap;html=1;" vertex="1" parent="1">
          <mxGeometry x="130" y="570" width="120" height="60" as="geometry" />
        </mxCell>
        <mxCell id="y1rRgEqODbrE1-zOls_D-2" value="name" style="ellipse;whiteSpace=wrap;html=1;" vertex="1" parent="1">
          <mxGeometry x="110" y="660" width="60" height="40" as="geometry" />
        </mxCell>
        <mxCell id="y1rRgEqODbrE1-zOls_D-3" value="&lt;u&gt;subjectAbr&lt;/u&gt;" style="ellipse;whiteSpace=wrap;html=1;" vertex="1" parent="1">
          <mxGeometry x="185" y="660" width="70" height="40" as="geometry" />
        </mxCell>
        <mxCell id="y1rRgEqODbrE1-zOls_D-4" value="" style="endArrow=none;html=1;rounded=0;entryX=0.25;entryY=1;entryDx=0;entryDy=0;exitX=0.5;exitY=0;exitDx=0;exitDy=0;" edge="1" parent="1" source="y1rRgEqODbrE1-zOls_D-2" target="y1rRgEqODbrE1-zOls_D-1">
          <mxGeometry width="50" height="50" relative="1" as="geometry">
            <mxPoint x="55" y="670" as="sourcePoint" />
            <mxPoint x="105" y="620" as="targetPoint" />
          </mxGeometry>
        </mxCell>
        <mxCell id="y1rRgEqODbrE1-zOls_D-5" value="" style="endArrow=none;html=1;rounded=0;exitX=0.5;exitY=0;exitDx=0;exitDy=0;entryX=0.5;entryY=1;entryDx=0;entryDy=0;" edge="1" parent="1" source="y1rRgEqODbrE1-zOls_D-3" target="y1rRgEqODbrE1-zOls_D-1">
          <mxGeometry width="50" height="50" relative="1" as="geometry">
            <mxPoint x="255" y="680" as="sourcePoint" />
            <mxPoint x="305" y="630" as="targetPoint" />
          </mxGeometry>
        </mxCell>
        <mxCell id="y1rRgEqODbrE1-zOls_D-19" style="edgeStyle=orthogonalEdgeStyle;rounded=0;orthogonalLoop=1;jettySize=auto;html=1;exitX=1;exitY=0.5;exitDx=0;exitDy=0;entryX=0;entryY=0.5;entryDx=0;entryDy=0;endArrow=none;endFill=0;" edge="1" parent="1" source="y1rRgEqODbrE1-zOls_D-6" target="y1rRgEqODbrE1-zOls_D-18">
          <mxGeometry relative="1" as="geometry" />
        </mxCell>
        <mxCell id="y1rRgEqODbrE1-zOls_D-6" value="Course" style="rounded=0;whiteSpace=wrap;html=1;" vertex="1" parent="1">
          <mxGeometry x="130" y="300" width="120" height="60" as="geometry" />
        </mxCell>
        <mxCell id="y1rRgEqODbrE1-zOls_D-7" value="name" style="ellipse;whiteSpace=wrap;html=1;" vertex="1" parent="1">
          <mxGeometry x="110" y="210" width="60" height="40" as="geometry" />
        </mxCell>
        <mxCell id="y1rRgEqODbrE1-zOls_D-8" value="&lt;u&gt;n&lt;/u&gt;u&lt;u&gt;m&lt;/u&gt;b&lt;u&gt;e&lt;/u&gt;r" style="ellipse;whiteSpace=wrap;html=1;" vertex="1" parent="1">
          <mxGeometry x="190" y="210" width="60" height="40" as="geometry" />
        </mxCell>
        <mxCell id="y1rRgEqODbrE1-zOls_D-9" value="" style="endArrow=none;html=1;rounded=0;entryX=0.5;entryY=1;entryDx=0;entryDy=0;exitX=0.5;exitY=0;exitDx=0;exitDy=0;" edge="1" parent="1" source="y1rRgEqODbrE1-zOls_D-6" target="y1rRgEqODbrE1-zOls_D-7">
          <mxGeometry width="50" height="50" relative="1" as="geometry">
            <mxPoint x="60" y="330" as="sourcePoint" />
            <mxPoint x="110" y="280" as="targetPoint" />
          </mxGeometry>
        </mxCell>
        <mxCell id="y1rRgEqODbrE1-zOls_D-10" value="" style="endArrow=none;html=1;rounded=0;entryX=0.5;entryY=1;entryDx=0;entryDy=0;exitX=0.5;exitY=0;exitDx=0;exitDy=0;" edge="1" parent="1" source="y1rRgEqODbrE1-zOls_D-6" target="y1rRgEqODbrE1-zOls_D-8">
          <mxGeometry width="50" height="50" relative="1" as="geometry">
            <mxPoint x="330" y="450" as="sourcePoint" />
            <mxPoint x="380" y="400" as="targetPoint" />
          </mxGeometry>
        </mxCell>
        <mxCell id="y1rRgEqODbrE1-zOls_D-11" value="offers" style="rhombus;whiteSpace=wrap;html=1;" vertex="1" parent="1">
          <mxGeometry x="150" y="400" width="80" height="80" as="geometry" />
        </mxCell>
        <mxCell id="y1rRgEqODbrE1-zOls_D-12" value="" style="endArrow=none;html=1;rounded=0;exitX=0.5;exitY=0;exitDx=0;exitDy=0;entryX=0.5;entryY=1;entryDx=0;entryDy=0;" edge="1" parent="1" source="y1rRgEqODbrE1-zOls_D-1" target="y1rRgEqODbrE1-zOls_D-16">
          <mxGeometry width="50" height="50" relative="1" as="geometry">
            <mxPoint x="195" y="590" as="sourcePoint" />
            <mxPoint x="190" y="540" as="targetPoint" />
          </mxGeometry>
        </mxCell>
        <mxCell id="y1rRgEqODbrE1-zOls_D-13" value="" style="endArrow=none;html=1;rounded=0;entryX=0.5;entryY=1;entryDx=0;entryDy=0;exitX=0.5;exitY=0;exitDx=0;exitDy=0;" edge="1" parent="1" source="y1rRgEqODbrE1-zOls_D-11" target="y1rRgEqODbrE1-zOls_D-6">
          <mxGeometry width="50" height="50" relative="1" as="geometry">
            <mxPoint x="305" y="400" as="sourcePoint" />
            <mxPoint x="245" y="490" as="targetPoint" />
          </mxGeometry>
        </mxCell>
        <mxCell id="y1rRgEqODbrE1-zOls_D-14" value="M" style="text;html=1;align=center;verticalAlign=middle;resizable=0;points=[];autosize=1;strokeColor=none;fillColor=none;" vertex="1" parent="1">
          <mxGeometry x="160" y="360" width="30" height="30" as="geometry" />
        </mxCell>
        <mxCell id="y1rRgEqODbrE1-zOls_D-15" value="1" style="text;html=1;align=center;verticalAlign=middle;resizable=0;points=[];autosize=1;strokeColor=none;fillColor=none;" vertex="1" parent="1">
          <mxGeometry x="160" y="540" width="30" height="30" as="geometry" />
        </mxCell>
        <mxCell id="y1rRgEqODbrE1-zOls_D-17" value="Class" style="rounded=0;whiteSpace=wrap;html=1;" vertex="1" parent="1">
          <mxGeometry x="550" y="300" width="120" height="60" as="geometry" />
        </mxCell>
        <mxCell id="y1rRgEqODbrE1-zOls_D-20" style="edgeStyle=orthogonalEdgeStyle;rounded=0;orthogonalLoop=1;jettySize=auto;html=1;exitX=1;exitY=0.5;exitDx=0;exitDy=0;endArrow=none;endFill=0;entryX=0;entryY=0.5;entryDx=0;entryDy=0;" edge="1" parent="1" source="y1rRgEqODbrE1-zOls_D-18" target="y1rRgEqODbrE1-zOls_D-17">
          <mxGeometry relative="1" as="geometry">
            <mxPoint x="515" y="328" as="targetPoint" />
          </mxGeometry>
        </mxCell>
        <mxCell id="y1rRgEqODbrE1-zOls_D-18" value="Is a" style="rhombus;whiteSpace=wrap;html=1;" vertex="1" parent="1">
          <mxGeometry x="330" y="290" width="80" height="80" as="geometry" />
        </mxCell>
        <mxCell id="y1rRgEqODbrE1-zOls_D-22" value="1" style="text;html=1;align=center;verticalAlign=middle;resizable=0;points=[];autosize=1;strokeColor=none;fillColor=none;" vertex="1" parent="1">
          <mxGeometry x="250" y="300" width="30" height="30" as="geometry" />
        </mxCell>
        <mxCell id="y1rRgEqODbrE1-zOls_D-23" value="M" style="text;html=1;align=center;verticalAlign=middle;resizable=0;points=[];autosize=1;strokeColor=none;fillColor=none;" vertex="1" parent="1">
          <mxGeometry x="520" y="300" width="30" height="30" as="geometry" />
        </mxCell>
        <mxCell id="y1rRgEqODbrE1-zOls_D-29" style="edgeStyle=orthogonalEdgeStyle;rounded=0;orthogonalLoop=1;jettySize=auto;html=1;exitX=0;exitY=0.5;exitDx=0;exitDy=0;entryX=1;entryY=0.25;entryDx=0;entryDy=0;endArrow=none;endFill=0;" edge="1" parent="1" source="y1rRgEqODbrE1-zOls_D-24" target="y1rRgEqODbrE1-zOls_D-17">
          <mxGeometry relative="1" as="geometry" />
        </mxCell>
        <mxCell id="y1rRgEqODbrE1-zOls_D-24" value="&lt;u&gt;s&lt;/u&gt;e&lt;u&gt;m&lt;/u&gt;e&lt;u&gt;s&lt;/u&gt;t&lt;u&gt;e&lt;/u&gt;r" style="ellipse;whiteSpace=wrap;html=1;" vertex="1" parent="1">
          <mxGeometry x="710" y="260" width="60" height="40" as="geometry" />
        </mxCell>
        <mxCell id="y1rRgEqODbrE1-zOls_D-28" style="edgeStyle=orthogonalEdgeStyle;rounded=0;orthogonalLoop=1;jettySize=auto;html=1;exitX=0;exitY=0.5;exitDx=0;exitDy=0;entryX=1;entryY=0.5;entryDx=0;entryDy=0;endArrow=none;endFill=0;" edge="1" parent="1" source="y1rRgEqODbrE1-zOls_D-25" target="y1rRgEqODbrE1-zOls_D-17">
          <mxGeometry relative="1" as="geometry" />
        </mxCell>
        <mxCell id="y1rRgEqODbrE1-zOls_D-25" value="location" style="ellipse;whiteSpace=wrap;html=1;" vertex="1" parent="1">
          <mxGeometry x="710" y="310" width="60" height="40" as="geometry" />
        </mxCell>
        <mxCell id="y1rRgEqODbrE1-zOls_D-27" style="edgeStyle=orthogonalEdgeStyle;rounded=0;orthogonalLoop=1;jettySize=auto;html=1;exitX=0;exitY=0.5;exitDx=0;exitDy=0;entryX=1;entryY=0.75;entryDx=0;entryDy=0;endArrow=none;endFill=0;" edge="1" parent="1" source="y1rRgEqODbrE1-zOls_D-26" target="y1rRgEqODbrE1-zOls_D-17">
          <mxGeometry relative="1" as="geometry" />
        </mxCell>
        <mxCell id="y1rRgEqODbrE1-zOls_D-26" value="timeBlock" style="ellipse;whiteSpace=wrap;html=1;" vertex="1" parent="1">
          <mxGeometry x="710" y="355" width="60" height="40" as="geometry" />
        </mxCell>
        <mxCell id="y1rRgEqODbrE1-zOls_D-47" style="edgeStyle=orthogonalEdgeStyle;rounded=0;orthogonalLoop=1;jettySize=auto;html=1;exitX=0.75;exitY=0;exitDx=0;exitDy=0;entryX=0;entryY=0.5;entryDx=0;entryDy=0;endArrow=none;endFill=0;" edge="1" parent="1" source="y1rRgEqODbrE1-zOls_D-37" target="y1rRgEqODbrE1-zOls_D-46">
          <mxGeometry relative="1" as="geometry" />
        </mxCell>
        <mxCell id="y1rRgEqODbrE1-zOls_D-37" value="Professor" style="rounded=0;whiteSpace=wrap;html=1;" vertex="1" parent="1">
          <mxGeometry x="360" y="450" width="120" height="60" as="geometry" />
        </mxCell>
        <mxCell id="y1rRgEqODbrE1-zOls_D-41" style="edgeStyle=orthogonalEdgeStyle;rounded=0;orthogonalLoop=1;jettySize=auto;html=1;exitX=0.5;exitY=0;exitDx=0;exitDy=0;entryX=0.25;entryY=1;entryDx=0;entryDy=0;endArrow=none;endFill=0;strokeWidth=4;" edge="1" parent="1" source="y1rRgEqODbrE1-zOls_D-39" target="y1rRgEqODbrE1-zOls_D-37">
          <mxGeometry relative="1" as="geometry" />
        </mxCell>
        <mxCell id="y1rRgEqODbrE1-zOls_D-39" value="works in" style="rhombus;whiteSpace=wrap;html=1;" vertex="1" parent="1">
          <mxGeometry x="300" y="540" width="80" height="80" as="geometry" />
        </mxCell>
        <mxCell id="y1rRgEqODbrE1-zOls_D-42" value="M" style="text;html=1;align=center;verticalAlign=middle;resizable=0;points=[];autosize=1;strokeColor=none;fillColor=none;" vertex="1" parent="1">
          <mxGeometry x="365" y="518" width="30" height="30" as="geometry" />
        </mxCell>
        <mxCell id="y1rRgEqODbrE1-zOls_D-43" value="1" style="text;html=1;align=center;verticalAlign=middle;resizable=0;points=[];autosize=1;strokeColor=none;fillColor=none;" vertex="1" parent="1">
          <mxGeometry x="245" y="548" width="30" height="30" as="geometry" />
        </mxCell>
        <mxCell id="y1rRgEqODbrE1-zOls_D-52" style="edgeStyle=orthogonalEdgeStyle;rounded=0;orthogonalLoop=1;jettySize=auto;html=1;exitX=1;exitY=0.5;exitDx=0;exitDy=0;entryX=0.25;entryY=1;entryDx=0;entryDy=0;endArrow=none;endFill=0;strokeWidth=3;" edge="1" parent="1" source="y1rRgEqODbrE1-zOls_D-46" target="y1rRgEqODbrE1-zOls_D-17">
          <mxGeometry relative="1" as="geometry" />
        </mxCell>
        <mxCell id="y1rRgEqODbrE1-zOls_D-46" value="teaches" style="rhombus;whiteSpace=wrap;html=1;" vertex="1" parent="1">
          <mxGeometry x="480" y="375" width="80" height="80" as="geometry" />
        </mxCell>
        <mxCell id="y1rRgEqODbrE1-zOls_D-49" value="1" style="text;html=1;align=center;verticalAlign=middle;resizable=0;points=[];autosize=1;strokeColor=none;fillColor=none;" vertex="1" parent="1">
          <mxGeometry x="415" y="418" width="30" height="30" as="geometry" />
        </mxCell>
        <mxCell id="y1rRgEqODbrE1-zOls_D-53" value="M" style="text;html=1;align=center;verticalAlign=middle;resizable=0;points=[];autosize=1;strokeColor=none;fillColor=none;" vertex="1" parent="1">
          <mxGeometry x="550" y="360" width="30" height="30" as="geometry" />
        </mxCell>
      </root>
    </mxGraphModel>
  </diagram>
</mxfile>
